PathFileType	4	(X/Y/Z)	C:/Users/beibeiliu/ov580/test_trc/User3\sequence.35_training_dense_left.trc
DataRate	CameraRate	NumFrames	NumMarkers	Units	OrigDataRate	OrigDataStartFrame	OrigNumFrames
120	120	13	19	mm	120	34	267
Frame#	Time	ThumbCMC			ThumbMCP			ThumbIP			ThumbTip			IndexMCP			IndexPIP			IndexTip			MiddleMCP			MiddlePIP			MiddleTip			RingMCP			RingPIP			RingTip			PinkyMCP			PinkyPIP			PinkyTip			BackHand1			BackHand2			BackHand3	
		X0	Y0	Z0	X1	Y1	Z1	X2	Y2	Z2	X3	Y3	Z3	X4	Y4	Z4	X5	Y5	Z5	X6	Y6	Z6	X7	Y7	Z7	X8	Y8	Z8	X9	Y9	Z9	X10	Y10	Z10	X11	Y11	Z11	X12	Y12	Z12	X13	Y13	Z13	X14	Y14	Z14	X15	Y15	Z15	X16	Y16	Z16	X17	Y17	Z17	X18	Y18	Z18	
33	0.275	-195.865	-21.1465	71.3863	-174.062	-32.3555	50.0515	-158.662	-44.5633	24.527	-153.473	-56.8992	10.1099	-205.087	-32.2232	-5.82131	-192.898	-49.008	-29.8525	-176.179	-74.3772	-34.8113	-214.75	-49.8288	-12.4484	-198.789	-75.2493	-21.7027	-183.105	-98.6417	2.25351	-229.076	-63.1593	-4.41225	-215.968	-87.8063	-8.16261	-200.512	-104.112	18.2996	-247.452	-75.6946	6.0552	-228.323	-93.3432	5.13505	-214.43	-105.125	27.606	-253.314	-28.7978	37.6054	-259.902	-25.0184	65.8531	-231.85	-11.3477	53.1232	
34	0.283333	-197.402	-24.1814	71.0842	-172.627	-34.7785	52.0766	-159.75	-46.2212	28.7947	-154.046	-59.5519	8.69928	-202.302	-32.4499	-5.5383	-189.942	-53.6182	-31.156	-177.686	-74.6195	-36.0743	-213.423	-51.5568	-14.2439	-197.348	-79.7721	-21.2921	-182.574	-102.86	6.37634	-231.578	-65.1722	-4.59181	-211.574	-90.6868	-8.79011	-199.7	-105.984	19.0275	-248.942	-74.7527	9.89461	-227.55	-96.6921	4.53176	-211.504	-103.373	27.8858	-252.585	-30.5675	37.1936	-260.755	-26.6005	69.0597	-231.706	-14.1791	52.579	
35	0.291667	-195.379	-25.9069	72.6556	-173.496	-36.5994	48.3034	-161.109	-48.041	27.9549	-153.92	-62.4278	8.56081	-200.265	-33.4793	-7.80643	-184.465	-52.9624	-31.8338	-173.966	-75.3431	-35.8034	-215.443	-56.0567	-14.8712	-194.478	-80.6208	-21.2164	-179.241	-104.111	3.95441	-230.697	-68.15	-5.05823	-211.011	-94.3605	-8.32915	-198.423	-106.459	16.6943	-245.499	-79.0375	4.67151	-225.493	-99.5585	5.0053	-213.825	-106.413	28.3412	-254.305	-33.924	34.2591	-261.957	-28.8374	65.9441	-230.116	-16.9673	54.2948	
36	0.3	-194.556	-26.7179	71.413	-174.025	-38.42	48.206	-159.946	-49.8178	28.053	-147.609	-63.1619	7.77759	-202.196	-38.5241	-8.16348	-189.756	-53.3816	-30.1325	-175.129	-79.3424	-35.8071	-213.891	-55.3348	-13.2531	-193.797	-79.3722	-22.9246	-182.361	-106.449	1.91358	-229.883	-68.854	-3.75814	-212.33	-93.1794	-9.41352	-195.257	-107.579	20.389	-241.738	-80.5551	5.45434	-223.919	-99.3921	5.35678	-211.066	-107.054	32.1575	-255.15	-37.8029	37.2248	-260.43	-30.5644	64.2517	-229.676	-18.7524	53.0395	
37	0.308333	-194.944	-29.9907	68.782	-172.842	-40.5933	46.5262	-158.547	-52.2839	28.4307	-147.119	-65.4056	8.54018	-200.351	-41.9748	-11.8222	-186.46	-58.1248	-31.8576	-169.587	-81.8249	-34.8309	-215.17	-57.9763	-11.8922	-195.245	-83.7843	-22.2652	-182.924	-107.758	3.05521	-229.949	-72.1615	-4.06827	-207.595	-97.4838	-7.6455	-197.216	-112.203	22.4801	-245.761	-81.4696	8.57177	-226.332	-103.928	6.29565	-208.827	-108.003	27.367	-250.449	-36.7288	39.0147	-262.221	-33.952	65.3734	-225.529	-17.9222	51.0742	
38	0.316667	-196.05	-31.394	68.4709	-169.369	-41.9052	49.4959	-154.587	-53.8217	26.8915	-150.036	-69.0093	10.9971	-199.291	-40.9987	-8.01464	-182.24	-58.6617	-31.4795	-170.958	-85.3282	-34.9652	-210.44	-57.0536	-12.5916	-193.904	-86.4262	-21.6556	-181.375	-110.534	7.50103	-225.142	-72.8057	-5.26035	-208.668	-99.1524	-7.82686	-196.019	-112.522	19.4856	-241.178	-83.9751	7.28065	-225.669	-106.402	7.09514	-208.079	-110.798	34.8187	-251.782	-41.0607	38.0635	-256.402	-32.6273	64.8092	-225.182	-17.8209	51.4025	
39	0.325	-196.401	-33.0689	68.7762	-173.934	-44.0732	51.1482	-155.157	-56.3578	25.3092	-147.914	-71.8005	5.18819	-198.178	-45.1293	-11.9967	-185.174	-58.8278	-30.3509	-168.611	-87.2013	-34.8883	-212.786	-63.4719	-15.0271	-193.384	-90.0567	-20.2474	-182.38	-110.996	4.50223	-224.837	-73.6153	-4.3947	-208.981	-101.7	-5.91165	-196.958	-115.253	23.428	-240.9	-87.3993	6.17885	-223.436	-107.76	8.31688	-208.852	-109.779	35.2497	-249.938	-39.0293	36.982	-258.245	-36.2887	65.0989	-224.303	-19.7427	53.93	
40	0.333333	-190.779	-32.1524	68.2789	-171.89	-44.4298	48.0785	-154.502	-55.3749	25.6697	-146.043	-70.4346	7.09069	-199.752	-45.9962	-12.3475	-184.179	-61.9087	-30.7445	-172.318	-87.4421	-35.4667	-212.215	-63.6427	-14.0962	-193.953	-89.1687	-21.3038	-177.265	-110.182	6.98456	-227.336	-76.7685	-4.56675	-209.414	-102.088	-7.2501	-194.654	-113.226	23.5985	-241.341	-84.3937	7.77449	-225.381	-108.683	7.81835	-207.191	-111.731	31.6813	-252.618	-43.3811	33.9474	-257.92	-36.0882	65.3921	-227.423	-21.3177	52.4143	
41	0.341667	-191.806	-31.9042	68.7072	-173.545	-45.7717	51.6821	-153.362	-57.5981	24.3611	-149.518	-71.8543	6.28125	-198.369	-44.6433	-9.29416	-186.1	-60.3317	-30.4754	-173.896	-87.1909	-35.4831	-212.368	-64.9269	-15.1108	-193.169	-90.4038	-21.7115	-182.428	-114.237	6.36394	-229.01	-77.4838	-4.52206	-208.474	-101.424	-7.12378	-194.82	-113.071	21.2203	-244.015	-88.6645	6.46651	-224.613	-109.189	7.36258	-209.059	-114.264	34.9249	-251.018	-42.6991	35.5262	-255.438	-35.7528	65.1371	-225.279	-21.3878	53.9896	
42	0.35	-193.478	-35.8608	66.0999	-169.865	-45.1347	49.6092	-158.842	-60.1001	23.2936	-152.054	-73.4811	7.91623	-196.972	-43.6085	-9.70041	-184.189	-64.5264	-32.2539	-169.415	-91.5496	-35.5878	-211.17	-66.4997	-15.9143	-194.889	-93.1316	-21.8467	-178.519	-114.442	8.83106	-228.511	-78.4813	-4.18862	-212.047	-106.592	-5.47164	-196.527	-115.51	21.3316	-244.238	-88.9522	6.37399	-224.745	-109.473	5.53816	-208.73	-114.911	29.8639	-251.045	-42.4522	37.502	-257.057	-37.585	66.0514	-226.2	-23.5333	53.5544	
43	0.358333	-193.7	-34.6967	66.8819	-174.49	-46.4557	47.2018	-158.402	-57.9955	26.5035	-150.783	-74.4842	4.44958	-201.56	-48.2698	-12.1035	-185.076	-61.3492	-32.7106	-172.236	-88.0104	-37.6858	-214.732	-66.1053	-13.7588	-191.524	-93.4776	-22.1473	-181.521	-114.098	6.13938	-226.58	-80.197	-7.18678	-212.406	-104.547	-8.99996	-199.531	-118.111	21.3842	-241.7	-88.0815	4.01892	-226.419	-110.175	3.90607	-210.587	-116.798	26.0892	-250.347	-43.2343	33.6957	-261.091	-39.4729	64.7435	-225.927	-23.2804	53.0773	
44	0.366667	-198.379	-36.4902	67.8771	-171.82	-46.0692	47.5276	-155.858	-58.1191	20.9082	-154.297	-73.4844	4.77749	-199.555	-46.7702	-10.633	-187.423	-62.5809	-32.9931	-172.522	-91.6864	-37.0601	-212.804	-63.9927	-13.3949	-196.288	-91.6623	-23.0879	-180.923	-114.54	6.63501	-228.171	-81.499	-8.36857	-213.586	-104.78	-10.2625	-200.763	-118.305	20.5196	-245.145	-86.5573	6.6997	-226.282	-111.88	4.7888	-208.8	-114.185	28.8611	-251.685	-44.2231	35.359	-256.967	-37.2452	63.3137	-225.611	-22.7038	48.6026	
45	0.375	-195.963	-37.1719	65.7993	-172.858	-48.2015	44.7716	-160.032	-60.5674	25.0075	-152.073	-73.2436	8.3668	-199.2	-47.2462	-11.9591	-184.797	-65.2593	-33.6246	-171.301	-91.4144	-36.5937	-211.589	-66.8103	-16.1775	-196.046	-96.8726	-21.3045	-182.393	-115.82	5.61028	-226.468	-77.283	-7.74296	-212.932	-103.813	-10.7434	-199.67	-117.968	21.3063	-244.074	-89.9762	3.00423	-229.014	-112.378	4.19288	-212.226	-117.12	26.1989	-255.059	-46.119	35.3332	-258.6	-35.9214	64.5609	-226.878	-24.4556	50.7965	
